<svg xmlns="http://www.w3.org/2000/svg" width="67.134" height="90.827" viewBox="0 0 67.134 90.827">
  <g id="Hacker" transform="translate(-508.214 -235.884)">
    <path id="Path_18" data-name="Path 18" d="M3265.055,2449.886l-31.722,6.627-6.118-10.675,23.766-15.708v-9.545l14.074,8.766,7.543-5.167v7.785l6.885-2.617v9.1l7.391,4.052-7.391,4.9,7.391,3.872-6.58,4.415,6.58,4.052-6.58,4.7,6.58,3.242-5.3,4.252,6.621,3.711-6.621,4.5,7.823,3.614-6.631,4.828,6.631,4.145-5.618,4.253H3239.43l2.6-8.4,2.7-6.723,4.62-8.55,3.508-4.891,3.755-4.9,2.443-2.793a26.458,26.458,0,0,0-1.43-4.216" transform="translate(-2717 -2182)" fill="none" stroke="#8b8b8b" stroke-width="3"/>
    <line id="Line_3" data-name="Line 3" x1="38.67" transform="translate(519.427 320.221)" fill="none" stroke="#8b8b8b" stroke-width="3"/>
    <path id="Path_22" data-name="Path 22" d="M54.841.1H1.073" transform="translate(518.414 325.113)" fill="none" stroke="#8b8b8b" stroke-width="3"/>
  </g>
</svg>
