<svg xmlns="http://www.w3.org/2000/svg" width="89.995" height="87.582" viewBox="0 0 89.995 87.582">
  <g id="Hipster" transform="translate(-336.34 -292.865)">
    <path id="Path_23" data-name="Path 23" d="M3194.222,2397.365h15.9l.843,1.5,6.443,11.476v2.171l-7.286,12.831h-15.9l-7.719-12.831,7.719-15.148Z" transform="translate(-2841.666 -2103)" fill="none" stroke="#8b8b8b" stroke-width="3"/>
    <path id="Path_24" data-name="Path 24" d="M7.719,0h15.9l.843,1.5,6.443,11.476v2.172L23.622,27.979H7.719L0,15.148,7.719,0Z" transform="translate(416.282 322.343) rotate(180)" fill="none" stroke="#8b8b8b" stroke-width="3"/>
    <path id="Path_25" data-name="Path 25" d="M3253.6,2427.733h9.431" transform="translate(-2877.854 -2119.38)" fill="none" stroke="#8b8b8b" stroke-width="3"/>
    <path id="Path_26" data-name="Path 26" d="M3177.852,2495.509s31.363.081,32.6,0,13.867,13.63,13.867,13.63l20.223-4.044,14.473-11.43h-34.7l-13.867,15.474-19.819-4.044Z" transform="translate(-2837 -2156.782)" fill="none" stroke="#8b8b8b" stroke-width="3"/>
    <path id="Path_27" data-name="Path 27" d="M3249.843,2546.588h13.427l-6.478,9.208Z" transform="translate(-2875.829 -2185.326)" fill="none" stroke="#8b8b8b" stroke-width="3"/>
    <path id="Path_28" data-name="Path 28" d="M3186.5,2520.335v8.308l26.318,21.471H3231.3l27.259-21.471v-8.308" transform="translate(-2841.666 -2171.167)" fill="none" stroke="#8b8b8b" stroke-width="3"/>
  </g>
</svg>
