<svg xmlns="http://www.w3.org/2000/svg" width="72.003" height="85.688" viewBox="0 0 72.003 85.688">
  <g id="Hustler" transform="translate(-273.233 -326.189)">
    <g id="Rectangle_16" data-name="Rectangle 16" transform="translate(312.189 349.784)" fill="none" stroke="#8b8b8b" stroke-width="3">
      <rect width="16" height="25" stroke="none"/>
      <rect x="1.5" y="1.5" width="13" height="22" fill="none"/>
    </g>
    <path id="Path_19" data-name="Path 19" d="M3111.733,2546.91v3.856l2.082,2.165,21.963-21.964,10.288,10.288-21.314,21.313,9.268,9.268h27.787l18.906-18.905s-.217-5.87,0-7.827" transform="translate(-2837 -2161.459)" fill="none" stroke="#8b8b8b" stroke-width="3"/>
    <path id="Path_20" data-name="Path 20" d="M3111.733,2484.3v-49.607h12.336v46.058l-3.549,3.55Z" transform="translate(-2837 -2107)" fill="none" stroke="#8b8b8b" stroke-width="3"/>
    <path id="Path_21" data-name="Path 21" d="M3154.863,2505.551v-15.7h12.777v16.864l-6.515-6.515Z" transform="translate(-2861.397 -2140.374)" fill="none" stroke="#8b8b8b" stroke-width="3"/>
    <g id="Rectangle_17" data-name="Rectangle 17" transform="translate(331.189 336.784)" fill="none" stroke="#8b8b8b" stroke-width="3">
      <rect width="14" height="42" stroke="none"/>
      <rect x="1.5" y="1.5" width="11" height="39" fill="none"/>
    </g>
  </g>
</svg>
