<svg xmlns="http://www.w3.org/2000/svg" width="87.782" height="87.672" viewBox="0 0 87.782 87.672">
  <g id="Hyper" transform="translate(-383.229 -485.87)">
    <path id="Path_29" data-name="Path 29" d="M3228.468,2615.406l20.115-21.036h30.055l19.963,21.036h7.91v30.57h-38.085v-22.857h-9.157v22.857h-37.539v-29.5h37.539v5.315" transform="translate(-2837 -2107)" fill="none" stroke="#8b8b8b" stroke-width="3"/>
    <path id="Path_30" data-name="Path 30" d="M3256.655,2673.913l17.071-29.073" transform="translate(-2856.333 -2134.937)" fill="none" stroke="#8b8b8b" stroke-width="3"/>
    <path id="Path_31" data-name="Path 31" d="M3363.4,2642.061h-38.088v8.16" transform="translate(-2893.894 -2133.399)" fill="none" stroke="#8b8b8b" stroke-width="3"/>
    <path id="Path_32" data-name="Path 32" d="M3362.4,2673.27l16.94-29.592" transform="translate(-2914.867 -2134.294)" fill="none" stroke="#8b8b8b" stroke-width="3"/>
    <path id="Path_33" data-name="Path 33" d="M3258.776,2731.9h51.564l-14.578,15.473h-22.789Z" transform="translate(-2857.507 -2183.131)" fill="none" stroke="#8b8b8b" stroke-width="3"/>
    <path id="Path_34" data-name="Path 34" d="M3232.079,2723.565v4.577l21.527,22.415h31.753l21.4-22.415v-4.577" transform="translate(-2842.729 -2178.516)" fill="none" stroke="#8b8b8b" stroke-width="3"/>
  </g>
</svg>
