<svg id="more" xmlns="http://www.w3.org/2000/svg" width="58.129" height="58.129" viewBox="0 0 58.129 58.129">
  <path id="Path_11" data-name="Path 11" d="M29.064,58.129A29.064,29.064,0,1,1,58.129,29.064,29.1,29.1,0,0,1,29.064,58.129Zm0-54.5A25.431,25.431,0,1,0,54.5,29.064,25.459,25.459,0,0,0,29.064,3.633Zm0,0" fill="#fbfbfb"/>
  <path id="Path_12" data-name="Path 12" d="M155.248,243.633H129.817a1.817,1.817,0,1,1,0-3.633h25.431a1.817,1.817,0,1,1,0,3.633Zm0,0" transform="translate(-113.468 -212.752)" fill="#fbfbfb"/>
  <path id="Path_13" data-name="Path 13" d="M241.817,157.064A1.817,1.817,0,0,1,240,155.248V129.817a1.817,1.817,0,1,1,3.633,0v25.431A1.817,1.817,0,0,1,241.817,157.064Zm0,0" transform="translate(-212.752 -113.468)" fill="#fbfbfb"/>
</svg>
