<svg xmlns="http://www.w3.org/2000/svg" width="485.806" height="399.429" viewBox="0 0 485.806 399.429">
  <g id="punch" transform="translate(0 -45.517)">
    <path id="Path_1" data-name="Path 1" d="M492.423,316.475,441.308,140.567h-4.384l9.442,197.049c0,30.681-26.319,55.784-58.487,55.784s-56.53-27.057-56.532-57.737v1.552c0,33.9-29.879,63.4-63.32,61.625-31.126-1.651-55.252-36.439-55.252-68.377V329.8c0,16.469-7.069,39.14-18.239,49.375l0,1.1c-5.257,40.784,26.775,72.06,58.143,69.381l28.847-2.463,114.63-.6A85.037,85.037,0,0,0,466.4,408.817l15.282-22.855A83.226,83.226,0,0,0,492.423,316.475Z" transform="translate(-9.923 -4.863)" fill="#e8c842"/>
    <path id="Path_2" data-name="Path 2" d="M466.4,391.9a85.039,85.039,0,0,1-70.244,37.768l-114.63.6-28.847,2.463C228,434.835,202.91,415.9,195.9,387.866c-.451.442-.9.889-1.364,1.316l0,1.1c-5.257,40.783,26.775,72.06,58.143,69.381l28.847-2.463,114.63-.6A85.036,85.036,0,0,0,466.4,418.828l15.282-22.854a83.229,83.229,0,0,0,12.939-59.73C490.368,362.212,476.893,374.339,466.4,391.9Z" transform="translate(-9.924 -14.873)" fill="#dbbc3b"/>
    <path id="Path_3" data-name="Path 3" d="M430.275,113.1c-2.538-51.682-75.688-68.437-101.184-23.9A5.655,5.655,0,0,1,318.826,87.9a59.7,59.7,0,0,0-111.168-8.046c-3.634,7.668-14.284,8.658-19.952,2.314-31.038-34.739-87.883-18.288-96.374,26.8-1.351,7.175-9.972,11.4-15.527,6.258a44.731,44.731,0,0,0-30.624-12.045A45.311,45.311,0,0,0,0,148.36V325.236a45.313,45.313,0,0,0,45.18,45.18h0a45.313,45.313,0,0,0,45.18-45.18v11.579c0,29.817,23.082,54.994,52.86,56.536a55.935,55.935,0,0,0,58.709-55.708v.668c0,31.939,24.724,58.9,56.619,60.558A59.913,59.913,0,0,0,321.432,339.2v-1.552c0,30.68,26.972,55.782,59.934,55.782s59.935-25.1,59.935-55.784Z" transform="translate(0 0)" fill="#f4d44e"/>
    <g id="Group_1" data-name="Group 1" transform="translate(0 45.517)">
      <path id="Path_4" data-name="Path 4" d="M57.421,107.985a39.121,39.121,0,0,0-12.241-1.7A45.311,45.311,0,0,0,0,151.468V328.344c0,29.687,28.584,51.63,57.4,43.476a45.35,45.35,0,0,1-32.961-43.476V151.468A45.35,45.35,0,0,1,57.421,107.985Z" transform="translate(0 -48.625)" fill="#e8c842"/>
      <path id="Path_5" data-name="Path 5" d="M410.92,397.938c-26.356-5.134-46.5-26.508-47.66-52.251V168.958a12.219,12.219,0,1,0-24.438,0V345.388A53.337,53.337,0,0,0,352.568,378.8l-.017.026a61.844,61.844,0,0,0,10.709,9.413v-.016A63.009,63.009,0,0,0,410.92,397.938Z" transform="translate(-17.334 -51.208)" fill="#e8c842"/>
      <path id="Path_6" data-name="Path 6" d="M119.669,342.5V330.925c0,.212-.016.421-.019.632v-162.6a12.219,12.219,0,1,0-24.438,0V331.686c0-.255.019-.5.019-.761V342.5c0,35.267,32.209,63.327,68.008,55.24C138.088,392.05,119.669,369.136,119.669,342.5Z" transform="translate(-4.871 -51.208)" fill="#e8c842"/>
      <path id="Path_7" data-name="Path 7" d="M237.441,348.512V168.958a12.219,12.219,0,1,0-24.438,0V348.442a61.121,61.121,0,0,0,11.03,30.844l0,0a62.064,62.064,0,0,0,13.412,13.746v-.018a58.848,58.848,0,0,0,47.355,10.35C258.855,397.908,239.417,375.383,237.441,348.512Z" transform="translate(-10.897 -51.208)" fill="#e8c842"/>
      <path id="Path_8" data-name="Path 8" d="M103.19,90.608h0a56.557,56.557,0,0,0-7.447,19.171h0a10.4,10.4,0,0,1-10.137,8.667l0,.013a25.933,25.933,0,0,0,27.062.2,18.706,18.706,0,0,0,7.877-10.657c5.061-22.7,22.553-37.771,42.481-42.195C140.4,60.691,115.815,70.367,103.19,90.608Z" transform="translate(-4.38 -46.486)" fill="#e8c842"/>
      <path id="Path_9" data-name="Path 9" d="M226,67.7l-.009,0a61.938,61.938,0,0,0-6.931,10.657c.006,0,.01.01.016.016-.253.5-.522.982-.761,1.486A11.413,11.413,0,0,1,208.281,86.3l.016.031s12.686,5.94,24.848,1.147a25.076,25.076,0,0,0,10.881-10.16h.011A60.12,60.12,0,0,1,284.574,46.79,59.582,59.582,0,0,0,226,67.7Z" transform="translate(-10.656 -45.517)" fill="#e8c842"/>
      <path id="Path_10" data-name="Path 10" d="M363.989,72.1h0a52.307,52.307,0,0,0-7.816,5.906l.008.014C345.725,87.7,347.4,93.4,341.279,92.886h0c.1.014,10.327,8.04,22.091,2.3,7.557-3.69,10.672-9.855,11.576-10.931a50.062,50.062,0,0,1,29.474-18.5C390.743,62.884,376.069,64.735,363.989,72.1Z" transform="translate(-17.46 -46.487)" fill="#e8c842"/>
    </g>
  </g>
</svg>
