<svg xmlns="http://www.w3.org/2000/svg" width="540" height="419" viewBox="0 0 540 419">
  <g id="Stones" transform="translate(-270 -750)">
    <g id="Stone-red" transform="translate(487.041 750.229)">
      <rect id="Rectangle_34" data-name="Rectangle 34" width="50" height="25" transform="translate(24.959 -0.229)" fill="#d85b5b"/>
      <rect id="Rectangle_35" data-name="Rectangle 35" width="24" height="25" transform="translate(100.959 -0.229)" fill="#d85b5b"/>
      <rect id="Rectangle_36" data-name="Rectangle 36" width="25" height="53" transform="translate(124.959 24.771)" fill="#d85b5b"/>
      <rect id="Rectangle_37" data-name="Rectangle 37" width="74" height="25" transform="translate(50.959 77.771)" fill="#d85b5b"/>
      <path id="Path_39" data-name="Path 39" d="M0,0H25.822V25.822H0Z" transform="translate(25.285 51.311)" fill="#d85b5b"/>
      <rect id="Rectangle_39" data-name="Rectangle 39" width="25" height="27" transform="translate(-0.041 24.771)" fill="#d85b5b"/>
      <rect id="Rectangle_40" data-name="Rectangle 40" width="26" height="25" transform="translate(74.959 -0.229)" fill="#c33232"/>
      <rect id="Rectangle_41" data-name="Rectangle 41" width="26" height="27" transform="translate(24.959 24.771)" fill="#a31212"/>
      <rect id="Rectangle_42" data-name="Rectangle 42" width="26" height="26" transform="translate(50.959 51.771)" fill="#a31212"/>
      <rect id="Rectangle_43" data-name="Rectangle 43" width="26" height="26" transform="translate(98.959 51.771)" fill="#a31212"/>
      <rect id="Rectangle_44" data-name="Rectangle 44" width="26" height="26" transform="translate(74.959 51.771)" fill="#c33232"/>
      <rect id="Rectangle_45" data-name="Rectangle 45" width="24" height="27" transform="translate(100.959 24.771)" fill="#c33232"/>
      <rect id="Rectangle_46" data-name="Rectangle 46" width="24" height="27" transform="translate(50.959 24.771)" fill="#c33232"/>
      <rect id="Rectangle_47" data-name="Rectangle 47" width="26" height="27" transform="translate(74.959 24.771)" fill="#d85b5b"/>
    </g>
    <g id="Stone-purple" transform="translate(660.854 893.422)">
      <rect id="Rectangle_34-2" data-name="Rectangle 34" width="50" height="27" transform="translate(25.146 -0.421)" fill="#7b6fde"/>
      <rect id="Rectangle_35-2" data-name="Rectangle 35" width="24" height="27" transform="translate(101.146 -0.421)" fill="#7b6fde"/>
      <rect id="Rectangle_36-2" data-name="Rectangle 36" width="24" height="51" transform="translate(125.146 26.579)" fill="#7b6fde"/>
      <rect id="Rectangle_37-2" data-name="Rectangle 37" width="75" height="26" transform="translate(50.146 77.579)" fill="#7b6fde"/>
      <rect id="Rectangle_38" data-name="Rectangle 38" width="25" height="25" transform="translate(25.146 52.579)" fill="#7b6fde"/>
      <rect id="Rectangle_39-2" data-name="Rectangle 39" width="25" height="26" transform="translate(0.146 26.579)" fill="#7b6fde"/>
      <rect id="Rectangle_40-2" data-name="Rectangle 40" width="26" height="27" transform="translate(75.146 -0.421)" fill="#453aa4"/>
      <rect id="Rectangle_41-2" data-name="Rectangle 41" width="25" height="26" transform="translate(25.146 26.579)" fill="#453aa4"/>
      <rect id="Rectangle_42-2" data-name="Rectangle 42" width="26" height="25" transform="translate(50.146 52.579)" fill="#453aa4"/>
      <rect id="Rectangle_43-2" data-name="Rectangle 43" width="26" height="25" transform="translate(99.146 52.579)" fill="#453aa4"/>
      <rect id="Rectangle_44-2" data-name="Rectangle 44" width="26" height="25" transform="translate(75.146 52.579)" fill="#5c49c6"/>
      <rect id="Rectangle_45-2" data-name="Rectangle 45" width="24" height="26" transform="translate(101.146 26.579)" fill="#5c49c6"/>
      <rect id="Rectangle_46-2" data-name="Rectangle 46" width="25" height="26" transform="translate(50.146 26.579)" fill="#5c49c6"/>
      <rect id="Rectangle_47-2" data-name="Rectangle 47" width="26" height="26" transform="translate(75.146 26.579)" fill="#7b5edd"/>
    </g>
    <g id="Stone-green_" data-name="Stone-green&apos;" transform="translate(270 863.702)">
      <rect id="Rectangle_34-3" data-name="Rectangle 34" width="50" height="26" transform="translate(25 0.298)" fill="#6fde78"/>
      <rect id="Rectangle_35-3" data-name="Rectangle 35" width="24" height="26" transform="translate(101 0.298)" fill="#6fde78"/>
      <rect id="Rectangle_36-3" data-name="Rectangle 36" width="24" height="51" transform="translate(125 26.298)" fill="#6fde78"/>
      <rect id="Rectangle_37-3" data-name="Rectangle 37" width="74" height="26" transform="translate(51 77.298)" fill="#6fde78"/>
      <rect id="Rectangle_38-2" data-name="Rectangle 38" width="26" height="26" transform="translate(25 51.298)" fill="#6fde78"/>
      <rect id="Rectangle_39-3" data-name="Rectangle 39" width="25" height="25" transform="translate(0 26.298)" fill="#6fde78"/>
      <rect id="Rectangle_40-3" data-name="Rectangle 40" width="26" height="26" transform="translate(75 0.298)" fill="#388d3f"/>
      <rect id="Rectangle_41-3" data-name="Rectangle 41" width="26" height="25" transform="translate(25 26.298)" fill="#388d3f"/>
      <rect id="Rectangle_42-3" data-name="Rectangle 42" width="26" height="26" transform="translate(51 51.298)" fill="#388d3f"/>
      <rect id="Rectangle_43-3" data-name="Rectangle 43" width="26" height="26" transform="translate(99 51.298)" fill="#388d3f"/>
      <rect id="Rectangle_44-3" data-name="Rectangle 44" width="26" height="26" transform="translate(75 51.298)" fill="#0e9b1b"/>
      <rect id="Rectangle_45-3" data-name="Rectangle 45" width="24" height="25" transform="translate(101 26.298)" fill="#0e9b1b"/>
      <path id="Path_40" data-name="Path 40" d="M0,0H23.835V25.822H0Z" transform="translate(50.981 25.895)" fill="#0e9b1b"/>
      <rect id="Rectangle_47-3" data-name="Rectangle 47" width="26" height="25" transform="translate(75 26.298)" fill="#6fde78"/>
    </g>
    <g id="Stone-yellow" transform="translate(376.269 1065.433)">
      <rect id="Rectangle_34-4" data-name="Rectangle 34" width="50" height="27" transform="translate(24.731 -0.433)" fill="#ded56f"/>
      <rect id="Rectangle_35-4" data-name="Rectangle 35" width="25" height="27" transform="translate(99.731 -0.433)" fill="#ded56f"/>
      <rect id="Rectangle_36-4" data-name="Rectangle 36" width="25" height="51" transform="translate(124.731 26.567)" fill="#ded56f"/>
      <rect id="Rectangle_37-4" data-name="Rectangle 37" width="74" height="26" transform="translate(50.731 77.567)" fill="#ded56f"/>
      <rect id="Rectangle_38-3" data-name="Rectangle 38" width="26" height="25" transform="translate(24.731 52.567)" fill="#ded56f"/>
      <rect id="Rectangle_39-4" data-name="Rectangle 39" width="25" height="26" transform="translate(-0.269 26.567)" fill="#ded56f"/>
      <rect id="Rectangle_40-4" data-name="Rectangle 40" width="25" height="27" transform="translate(74.731 -0.433)" fill="#d8c600"/>
      <rect id="Rectangle_41-4" data-name="Rectangle 41" width="26" height="26" transform="translate(24.731 26.567)" fill="#a09307"/>
      <rect id="Rectangle_42-4" data-name="Rectangle 42" width="26" height="25" transform="translate(50.731 52.567)" fill="#a09307"/>
      <rect id="Rectangle_43-4" data-name="Rectangle 43" width="26" height="25" transform="translate(98.731 52.567)" fill="#a09307"/>
      <rect id="Rectangle_44-4" data-name="Rectangle 44" width="25" height="25" transform="translate(74.731 52.567)" fill="#d8c600"/>
      <rect id="Rectangle_45-4" data-name="Rectangle 45" width="25" height="26" transform="translate(99.731 26.567)" fill="#d8c600"/>
      <rect id="Rectangle_46-3" data-name="Rectangle 46" width="24" height="26" transform="translate(50.731 26.567)" fill="#d8c600"/>
      <rect id="Rectangle_47-4" data-name="Rectangle 47" width="25" height="26" transform="translate(74.731 26.567)" fill="#a09307"/>
    </g>
    <g id="Stone-blue" transform="translate(465.317 915.419)">
      <rect id="Rectangle_34-5" data-name="Rectangle 34" width="49.657" height="25.822" transform="translate(25.159 0)" fill="#4d89f5"/>
      <path id="Path_41" data-name="Path 41" d="M0,0H24.5V25.822H0Z" transform="translate(100.638 0)" fill="#4c89f5"/>
      <rect id="Rectangle_36-5" data-name="Rectangle 36" width="24.497" height="51.643" transform="translate(125.135 25.822)" fill="#4d89f5"/>
      <rect id="Rectangle_37-5" data-name="Rectangle 37" width="74.154" height="25.822" transform="translate(50.981 77.465)" fill="#4c8af5"/>
      <rect id="Rectangle_38-4" data-name="Rectangle 38" width="25.822" height="25.822" transform="translate(25.159 51.643)" fill="#4d8af4"/>
      <rect id="Rectangle_39-5" data-name="Rectangle 39" width="25.159" height="25.822" transform="translate(0 25.822)" fill="#4d89f5"/>
      <rect id="Rectangle_40-5" data-name="Rectangle 40" width="25.822" height="25.822" transform="translate(74.816 0)" fill="#1c5cce"/>
      <rect id="Rectangle_41-5" data-name="Rectangle 41" width="25.822" height="25.822" transform="translate(25.159 25.822)" fill="#15459b"/>
      <rect id="Rectangle_42-5" data-name="Rectangle 42" width="25.822" height="25.822" transform="translate(50.981 51.643)" fill="#15459b"/>
      <rect id="Rectangle_43-5" data-name="Rectangle 43" width="25.822" height="25.822" transform="translate(99.314 51.643)" fill="#15459b"/>
      <rect id="Rectangle_44-5" data-name="Rectangle 44" width="25.822" height="25.822" transform="translate(74.816 51.643)" fill="#1c5cce"/>
      <rect id="Rectangle_45-5" data-name="Rectangle 45" width="24.497" height="25.822" transform="translate(100.638 25.822)" fill="#1c5cce"/>
      <rect id="Rectangle_46-4" data-name="Rectangle 46" width="23.835" height="25.822" transform="translate(50.981 25.822)" fill="#1c5cce"/>
      <rect id="Rectangle_47-5" data-name="Rectangle 47" width="25.822" height="25.822" transform="translate(74.816 25.822)" fill="#699bf2"/>
    </g>
    <g id="Stone-orange" transform="translate(616.725 1051.924)">
      <rect id="Rectangle_34-6" data-name="Rectangle 34" width="49" height="26" transform="translate(25.275 0.076)" fill="#de9e6f"/>
      <rect id="Rectangle_35-5" data-name="Rectangle 35" width="24" height="26" transform="translate(101.275 0.076)" fill="#de9e6f"/>
      <rect id="Rectangle_36-6" data-name="Rectangle 36" width="24" height="51" transform="translate(125.275 26.076)" fill="#de9e6f"/>
      <rect id="Rectangle_37-6" data-name="Rectangle 37" width="74" height="26" transform="translate(51.275 77.076)" fill="#de9e6f"/>
      <rect id="Rectangle_38-5" data-name="Rectangle 38" width="26" height="26" transform="translate(25.275 51.076)" fill="#de9e6f"/>
      <rect id="Rectangle_39-6" data-name="Rectangle 39" width="25" height="25" transform="translate(0.275 26.076)" fill="#de9e6f"/>
      <rect id="Rectangle_40-6" data-name="Rectangle 40" width="27" height="26" transform="translate(74.275 0.076)" fill="#b4662d"/>
      <rect id="Rectangle_41-6" data-name="Rectangle 41" width="26" height="25" transform="translate(25.275 26.076)" fill="#de7325"/>
      <rect id="Rectangle_42-6" data-name="Rectangle 42" width="26" height="26" transform="translate(51.275 51.076)" fill="#de7325"/>
      <rect id="Rectangle_43-6" data-name="Rectangle 43" width="25" height="26" transform="translate(100.275 51.076)" fill="#de7325"/>
      <rect id="Rectangle_44-6" data-name="Rectangle 44" width="27" height="26" transform="translate(74.275 51.076)" fill="#b4662d"/>
      <rect id="Rectangle_45-6" data-name="Rectangle 45" width="24" height="25" transform="translate(101.275 26.076)" fill="#b4662d"/>
      <rect id="Rectangle_46-5" data-name="Rectangle 46" width="23" height="25" transform="translate(51.275 26.076)" fill="#b4662d"/>
      <rect id="Rectangle_47-6" data-name="Rectangle 47" width="27" height="25" transform="translate(74.275 26.076)" fill="#de7325"/>
    </g>
  </g>
</svg>
